<svg xmlns="http://www.w3.org/2000/svg" width="1920" height="1080"><path d="M807,-163L990,-144L1216,-159Z" fill="#c5c5c5" stroke="#c5c5c5" stroke-width="1.51"/><path d="M686,-182L807,-163L1216,-159Z" fill="#cbcbcb" stroke="#cbcbcb" stroke-width="1.51"/><path d="M719,1249L417,1278L1227,1265Z" fill="#555555" stroke="#555555" stroke-width="1.51"/><path d="M1371,1246L1227,1265L1751,1247Z" fill="#333333" stroke="#333333" stroke-width="1.51"/><path d="M1431,1238L1371,1246L1751,1247Z" fill="#313131" stroke="#313131" stroke-width="1.51"/><path d="M1485,-139L1631,-121L1753,-135Z" fill="#9b9b9b" stroke="#9b9b9b" stroke-width="1.51"/><path d="M686,-182L1216,-159L1959,-188Z" fill="#b3b3b3" stroke="#b3b3b3" stroke-width="1.51"/><path d="M1485,-139L1753,-135L1959,-188Z" fill="#929292" stroke="#929292" stroke-width="1.51"/><path d="M1216,-159L1485,-139L1959,-188Z" fill="#a2a2a2" stroke="#a2a2a2" stroke-width="1.51"/><path d="M1751,1247L1227,1265L1996,1264Z" fill="#262626" stroke="#262626" stroke-width="1.51"/><path d="M1800,1243L1751,1247L1996,1264Z" fill="#191919" stroke="#191919" stroke-width="1.51"/><path d="M1969,597L2070,738L2081,552Z" fill="#484848" stroke="#484848" stroke-width="1.51"/><path d="M1997,448L2068,531L2084,306Z" fill="#595959" stroke="#595959" stroke-width="1.51"/><path d="M1983,361L1997,448L2084,306Z" fill="#606060" stroke="#606060" stroke-width="1.51"/><path d="M2068,531L2081,552L2084,306Z" fill="#545454" stroke="#545454" stroke-width="1.51"/><path d="M2070,738L1973,756L2123,904Z" fill="#393939" stroke="#393939" stroke-width="1.51"/><path d="M1973,756L1988,950L2123,904Z" fill="#353535" stroke="#353535" stroke-width="1.51"/><path d="M2081,552L2070,738L2123,904Z" fill="#3c3c3c" stroke="#3c3c3c" stroke-width="1.51"/><path d="M2109,90L1971,148L2125,221Z" fill="#6c6c6c" stroke="#6c6c6c" stroke-width="1.51"/><path d="M2084,306L2081,552L2125,221Z" fill="#5c5c5c" stroke="#5c5c5c" stroke-width="1.51"/><path d="M2081,552L2123,904L2125,221Z" fill="#494949" stroke="#494949" stroke-width="1.51"/><path d="M1984,-29L2109,90L2129,-73Z" fill="#747474" stroke="#747474" stroke-width="1.51"/><path d="M2109,90L2125,221L2129,-73Z" fill="#6c6c6c" stroke="#6c6c6c" stroke-width="1.51"/><path d="M2129,-73L2125,221L2133,-122Z" fill="#707070" stroke="#707070" stroke-width="1.51"/><path d="M2056,1111L2037,1229L2135,962Z" fill="#1a1a1a" stroke="#1a1a1a" stroke-width="1.51"/><path d="M2123,904L1988,950L2135,962Z" fill="#2c2c2c" stroke="#2c2c2c" stroke-width="1.51"/><path d="M1988,950L2056,1111L2135,962Z" fill="#252525" stroke="#252525" stroke-width="1.51"/><path d="M2125,221L2123,904L2135,962Z" fill="#3d3d3d" stroke="#3d3d3d" stroke-width="1.51"/><path d="M2133,-122L2125,221L2135,962Z" fill="#5b5b5b" stroke="#5b5b5b" stroke-width="1.51"/><path d="M1984,-29L2129,-73L2133,-122Z" fill="#767676" stroke="#767676" stroke-width="1.51"/><path d="M1959,-188L1984,-29L2133,-122Z" fill="#7b7b7b" stroke="#7b7b7b" stroke-width="1.51"/><path d="M1973,756L1918,864L1988,950Z" fill="#393939" stroke="#393939" stroke-width="1.51"/><path d="M1935,239L2084,306L2125,221Z" fill="#666666" stroke="#666666" stroke-width="1.51"/><path d="M1971,148L1935,239L2125,221Z" fill="#6c6c6c" stroke="#6c6c6c" stroke-width="1.51"/><path d="M1984,-29L1971,148L2109,90Z" fill="#737373" stroke="#737373" stroke-width="1.51"/><path d="M1988,950L1964,1125L2056,1111Z" fill="#222222" stroke="#222222" stroke-width="1.51"/><path d="M1969,597L1973,756L2070,738Z" fill="#444444" stroke="#444444" stroke-width="1.51"/><path d="M2068,531L1969,597L2081,552Z" fill="#4e4e4e" stroke="#4e4e4e" stroke-width="1.51"/><path d="M1935,239L1983,361L2084,306Z" fill="#666666" stroke="#666666" stroke-width="1.51"/><path d="M1964,1125L2037,1229L2056,1111Z" fill="#191919" stroke="#191919" stroke-width="1.51"/><path d="M1997,448L1969,597L2068,531Z" fill="#525252" stroke="#525252" stroke-width="1.51"/><path d="M1959,-188L1877,-130L1984,-29Z" fill="#808080" stroke="#808080" stroke-width="1.51"/><path d="M1882,105L1971,148L1984,-29Z" fill="#777777" stroke="#777777" stroke-width="1.51"/><path d="M1964,1125L1996,1264L2037,1229Z" fill="#161616" stroke="#161616" stroke-width="1.51"/><path d="M1857,1111L1800,1243L1964,1125Z" fill="#1f1f1f" stroke="#1f1f1f" stroke-width="1.51"/><path d="M1969,597L1844,584L1973,756Z" fill="#4d4d4d" stroke="#4d4d4d" stroke-width="1.51"/><path d="M1844,584L1818,762L1973,756Z" fill="#4b4b4b" stroke="#4b4b4b" stroke-width="1.51"/><path d="M1857,1111L1964,1125L1988,950Z" fill="#252525" stroke="#252525" stroke-width="1.51"/><path d="M1855,947L1857,1111L1988,950Z" fill="#2e2e2e" stroke="#2e2e2e" stroke-width="1.51"/><path d="M1964,1125L1800,1243L1996,1264Z" fill="#191919" stroke="#191919" stroke-width="1.51"/><path d="M1844,584L1969,597L1997,448Z" fill="#555555" stroke="#555555" stroke-width="1.51"/><path d="M1812,517L1844,584L1997,448Z" fill="#5b5b5b" stroke="#5b5b5b" stroke-width="1.51"/><path d="M1983,361L1789,358L1997,448Z" fill="#646464" stroke="#646464" stroke-width="1.51"/><path d="M1789,358L1812,517L1997,448Z" fill="#626262" stroke="#626262" stroke-width="1.51"/><path d="M1753,-135L1877,-130L1959,-188Z" fill="#878787" stroke="#878787" stroke-width="1.51"/><path d="M1935,239L1789,358L1983,361Z" fill="#6b6b6b" stroke="#6b6b6b" stroke-width="1.51"/><path d="M1815,-63L1882,105L1984,-29Z" fill="#7f7f7f" stroke="#7f7f7f" stroke-width="1.51"/><path d="M1918,864L1870,895L1988,950Z" fill="#373737" stroke="#373737" stroke-width="1.51"/><path d="M1870,895L1855,947L1988,950Z" fill="#363636" stroke="#363636" stroke-width="1.51"/><path d="M1877,-130L1815,-63L1984,-29Z" fill="#828282" stroke="#828282" stroke-width="1.51"/><path d="M1882,105L1935,239L1971,148Z" fill="#747474" stroke="#747474" stroke-width="1.51"/><path d="M1818,762L1918,864L1973,756Z" fill="#424242" stroke="#424242" stroke-width="1.51"/><path d="M1803,248L1789,358L1935,239Z" fill="#717171" stroke="#717171" stroke-width="1.51"/><path d="M857,1228L719,1249L1227,1265Z" fill="#4e4e4e" stroke="#4e4e4e" stroke-width="1.51"/><path d="M1882,105L1803,248L1935,239Z" fill="#757575" stroke="#757575" stroke-width="1.51"/><path d="M1818,762L1870,895L1918,864Z" fill="#404040" stroke="#404040" stroke-width="1.51"/><path d="M1686,1017L1707,1091L1855,947Z" fill="#363636" stroke="#363636" stroke-width="1.51"/><path d="M1855,947L1707,1091L1857,1111Z" fill="#2e2e2e" stroke="#2e2e2e" stroke-width="1.51"/><path d="M1818,762L1737,883L1870,895Z" fill="#444444" stroke="#444444" stroke-width="1.51"/><path d="M1699,144L1803,248L1882,105Z" fill="#7d7d7d" stroke="#7d7d7d" stroke-width="1.51"/><path d="M1815,-63L1737,-29L1882,105Z" fill="#858585" stroke="#858585" stroke-width="1.51"/><path d="M1737,-29L1699,144L1882,105Z" fill="#848484" stroke="#848484" stroke-width="1.51"/><path d="M1671,677L1818,762L1844,584Z" fill="#555555" stroke="#555555" stroke-width="1.51"/><path d="M1753,-135L1815,-63L1877,-130Z" fill="#898989" stroke="#898989" stroke-width="1.51"/><path d="M1737,883L1855,947L1870,895Z" fill="#3d3d3d" stroke="#3d3d3d" stroke-width="1.51"/><path d="M1707,1091L1751,1247L1800,1243Z" fill="#252525" stroke="#252525" stroke-width="1.51"/><path d="M1789,358L1736,508L1812,517Z" fill="#676767" stroke="#676767" stroke-width="1.51"/><path d="M1668,603L1671,677L1844,584Z" fill="#5d5d5d" stroke="#5d5d5d" stroke-width="1.51"/><path d="M1737,883L1686,1017L1855,947Z" fill="#3d3d3d" stroke="#3d3d3d" stroke-width="1.51"/><path d="M1707,1091L1800,1243L1857,1111Z" fill="#262626" stroke="#262626" stroke-width="1.51"/><path d="M1713,374L1736,508L1789,358Z" fill="#6f6f6f" stroke="#6f6f6f" stroke-width="1.51"/><path d="M1812,517L1736,508L1844,584Z" fill="#5f5f5f" stroke="#5f5f5f" stroke-width="1.51"/><path d="M1736,508L1668,603L1844,584Z" fill="#616161" stroke="#616161" stroke-width="1.51"/><path d="M1713,374L1789,358L1803,248Z" fill="#757575" stroke="#757575" stroke-width="1.51"/><path d="M1671,677L1737,883L1818,762Z" fill="#4f4f4f" stroke="#4f4f4f" stroke-width="1.51"/><path d="M1600,1178L1431,1238L1751,1247Z" fill="#2e2e2e" stroke="#2e2e2e" stroke-width="1.51"/><path d="M1753,-135L1737,-29L1815,-63Z" fill="#8c8c8c" stroke="#8c8c8c" stroke-width="1.51"/><path d="M1656,200L1713,374L1803,248Z" fill="#7c7c7c" stroke="#7c7c7c" stroke-width="1.51"/><path d="M1699,144L1656,200L1803,248Z" fill="#828282" stroke="#828282" stroke-width="1.51"/><path d="M111,-165L209,-151L686,-182Z" fill="#ebebeb" stroke="#ebebeb" stroke-width="1.51"/><path d="M1590,690L1545,842L1671,677Z" fill="#5d5d5d" stroke="#5d5d5d" stroke-width="1.51"/><path d="M1713,374L1592,488L1736,508Z" fill="#707070" stroke="#707070" stroke-width="1.51"/><path d="M1537,114L1699,144L1737,-29Z" fill="#8f8f8f" stroke="#8f8f8f" stroke-width="1.51"/><path d="M1543,-53L1537,114L1737,-29Z" fill="#979797" stroke="#979797" stroke-width="1.51"/><path d="M1671,677L1545,842L1737,883Z" fill="#545454" stroke="#545454" stroke-width="1.51"/><path d="M1707,1091L1600,1178L1751,1247Z" fill="#2b2b2b" stroke="#2b2b2b" stroke-width="1.51"/><path d="M1631,-121L1737,-29L1753,-135Z" fill="#929292" stroke="#929292" stroke-width="1.51"/><path d="M1603,383L1592,488L1713,374Z" fill="#787878" stroke="#787878" stroke-width="1.51"/><path d="M1656,200L1603,383L1713,374Z" fill="#7f7f7f" stroke="#7f7f7f" stroke-width="1.51"/><path d="M1592,488L1668,603L1736,508Z" fill="#6a6a6a" stroke="#6a6a6a" stroke-width="1.51"/><path d="M1631,-121L1543,-53L1737,-29Z" fill="#989898" stroke="#989898" stroke-width="1.51"/><path d="M1545,842L1686,1017L1737,883Z" fill="#4a4a4a" stroke="#4a4a4a" stroke-width="1.51"/><path d="M1545,842L1533,1017L1686,1017Z" fill="#4a4a4a" stroke="#4a4a4a" stroke-width="1.51"/><path d="M1498,902L1533,1017L1545,842Z" fill="#535353" stroke="#535353" stroke-width="1.51"/><path d="M1592,488L1627,608L1668,603Z" fill="#6a6a6a" stroke="#6a6a6a" stroke-width="1.51"/><path d="M1686,1017L1538,1058L1707,1091Z" fill="#3a3a3a" stroke="#3a3a3a" stroke-width="1.51"/><path d="M1538,1058L1600,1178L1707,1091Z" fill="#363636" stroke="#363636" stroke-width="1.51"/><path d="M1558,175L1656,200L1699,144Z" fill="#8b8b8b" stroke="#8b8b8b" stroke-width="1.51"/><path d="M1537,114L1558,175L1699,144Z" fill="#909090" stroke="#909090" stroke-width="1.51"/><path d="M1558,175L1603,383L1656,200Z" fill="#888888" stroke="#888888" stroke-width="1.51"/><path d="M1668,603L1627,608L1671,677Z" fill="#626262" stroke="#626262" stroke-width="1.51"/><path d="M1533,1017L1538,1058L1686,1017Z" fill="#414141" stroke="#414141" stroke-width="1.51"/><path d="M1558,175L1479,237L1603,383Z" fill="#8c8c8c" stroke="#8c8c8c" stroke-width="1.51"/><path d="M1627,608L1590,690L1671,677Z" fill="#626262" stroke="#626262" stroke-width="1.51"/><path d="M1479,237L1462,343L1603,383Z" fill="#8a8a8a" stroke="#8a8a8a" stroke-width="1.51"/><path d="M1592,488L1475,621L1627,608Z" fill="#6f6f6f" stroke="#6f6f6f" stroke-width="1.51"/><path d="M1485,-139L1543,-53L1631,-121Z" fill="#a0a0a0" stroke="#a0a0a0" stroke-width="1.51"/><path d="M1467,764L1545,842L1590,690Z" fill="#606060" stroke="#606060" stroke-width="1.51"/><path d="M1475,621L1590,690L1627,608Z" fill="#696969" stroke="#696969" stroke-width="1.51"/><path d="M1463,478L1475,621L1592,488Z" fill="#777777" stroke="#777777" stroke-width="1.51"/><path d="M1538,1058L1481,1086L1600,1178Z" fill="#3b3b3b" stroke="#3b3b3b" stroke-width="1.51"/><path d="M1463,478L1592,488L1603,383Z" fill="#7c7c7c" stroke="#7c7c7c" stroke-width="1.51"/><path d="M1462,343L1463,478L1603,383Z" fill="#848484" stroke="#848484" stroke-width="1.51"/><path d="M1481,1086L1431,1238L1600,1178Z" fill="#383838" stroke="#383838" stroke-width="1.51"/><path d="M1475,621L1467,764L1590,690Z" fill="#686868" stroke="#686868" stroke-width="1.51"/><path d="M1498,902L1466,986L1533,1017Z" fill="#4e4e4e" stroke="#4e4e4e" stroke-width="1.51"/><path d="M1464,121L1537,114L1543,-53Z" fill="#9b9b9b" stroke="#9b9b9b" stroke-width="1.51"/><path d="M1455,-69L1464,121L1543,-53Z" fill="#a0a0a0" stroke="#a0a0a0" stroke-width="1.51"/><path d="M1537,114L1464,121L1558,175Z" fill="#969696" stroke="#969696" stroke-width="1.51"/><path d="M1464,121L1479,237L1558,175Z" fill="#959595" stroke="#959595" stroke-width="1.51"/><path d="M1216,-159L1304,-100L1485,-139Z" fill="#afafaf" stroke="#afafaf" stroke-width="1.51"/><path d="M1485,-139L1455,-69L1543,-53Z" fill="#a3a3a3" stroke="#a3a3a3" stroke-width="1.51"/><path d="M1467,764L1498,902L1545,842Z" fill="#5b5b5b" stroke="#5b5b5b" stroke-width="1.51"/><path d="M1533,1017L1481,1086L1538,1058Z" fill="#434343" stroke="#434343" stroke-width="1.51"/><path d="M1466,986L1481,1086L1533,1017Z" fill="#474747" stroke="#474747" stroke-width="1.51"/><path d="M1078,1217L857,1228L1227,1265Z" fill="#494949" stroke="#494949" stroke-width="1.51"/><path d="M1462,343L1376,340L1463,478Z" fill="#898989" stroke="#898989" stroke-width="1.51"/><path d="M1455,-69L1357,-43L1464,121Z" fill="#a4a4a4" stroke="#a4a4a4" stroke-width="1.51"/><path d="M1286,810L1349,945L1467,764Z" fill="#626262" stroke="#626262" stroke-width="1.51"/><path d="M1463,478L1378,560L1475,621Z" fill="#797979" stroke="#797979" stroke-width="1.51"/><path d="M1374,727L1467,764L1475,621Z" fill="#6b6b6b" stroke="#6b6b6b" stroke-width="1.51"/><path d="M1353,1088L1431,1238L1481,1086Z" fill="#3e3e3e" stroke="#3e3e3e" stroke-width="1.51"/><path d="M1467,764L1349,945L1498,902Z" fill="#5c5c5c" stroke="#5c5c5c" stroke-width="1.51"/><path d="M1349,945L1466,986L1498,902Z" fill="#555555" stroke="#555555" stroke-width="1.51"/><path d="M1357,-43L1350,145L1464,121Z" fill="#a2a2a2" stroke="#a2a2a2" stroke-width="1.51"/><path d="M1374,727L1286,810L1467,764Z" fill="#696969" stroke="#696969" stroke-width="1.51"/><path d="M1376,340L1462,343L1479,237Z" fill="#909090" stroke="#909090" stroke-width="1.51"/><path d="M1464,121L1350,145L1479,237Z" fill="#9a9a9a" stroke="#9a9a9a" stroke-width="1.51"/><path d="M1350,145L1332,189L1479,237Z" fill="#9b9b9b" stroke="#9b9b9b" stroke-width="1.51"/><path d="M1466,986L1353,1088L1481,1086Z" fill="#474747" stroke="#474747" stroke-width="1.51"/><path d="M1304,-100L1455,-69L1485,-139Z" fill="#a8a8a8" stroke="#a8a8a8" stroke-width="1.51"/><path d="M1376,340L1339,485L1463,478Z" fill="#878787" stroke="#878787" stroke-width="1.51"/><path d="M1332,189L1376,340L1479,237Z" fill="#959595" stroke="#959595" stroke-width="1.51"/><path d="M1353,1088L1371,1246L1431,1238Z" fill="#3c3c3c" stroke="#3c3c3c" stroke-width="1.51"/><path d="M1304,-100L1357,-43L1455,-69Z" fill="#aaaaaa" stroke="#aaaaaa" stroke-width="1.51"/><path d="M1378,560L1374,727L1475,621Z" fill="#737373" stroke="#737373" stroke-width="1.51"/><path d="M990,-144L1050,-135L1216,-159Z" fill="#bfbfbf" stroke="#bfbfbf" stroke-width="1.51"/><path d="M1349,945L1353,1088L1466,986Z" fill="#4f4f4f" stroke="#4f4f4f" stroke-width="1.51"/><path d="M1339,485L1378,560L1463,478Z" fill="#808080" stroke="#808080" stroke-width="1.51"/><path d="M1197,300L1208,490L1339,485Z" fill="#909090" stroke="#909090" stroke-width="1.51"/><path d="M1286,810L1247,859L1349,945Z" fill="#646464" stroke="#646464" stroke-width="1.51"/><path d="M1349,945L1163,1015L1353,1088Z" fill="#535353" stroke="#535353" stroke-width="1.51"/><path d="M1184,1117L1227,1265L1353,1088Z" fill="#454545" stroke="#454545" stroke-width="1.51"/><path d="M1229,-2L1350,145L1357,-43Z" fill="#a9a9a9" stroke="#a9a9a9" stroke-width="1.51"/><path d="M1353,1088L1227,1265L1371,1246Z" fill="#3f3f3f" stroke="#3f3f3f" stroke-width="1.51"/><path d="M1197,300L1339,485L1376,340Z" fill="#929292" stroke="#929292" stroke-width="1.51"/><path d="M1253,265L1197,300L1376,340Z" fill="#9a9a9a" stroke="#9a9a9a" stroke-width="1.51"/><path d="M1332,189L1253,265L1376,340Z" fill="#9a9a9a" stroke="#9a9a9a" stroke-width="1.51"/><path d="M1255,601L1374,727L1378,560Z" fill="#777777" stroke="#777777" stroke-width="1.51"/><path d="M1339,485L1255,601L1378,560Z" fill="#7f7f7f" stroke="#7f7f7f" stroke-width="1.51"/><path d="M1255,601L1286,810L1374,727Z" fill="#727272" stroke="#727272" stroke-width="1.51"/><path d="M1255,601L1157,732L1286,810Z" fill="#757575" stroke="#757575" stroke-width="1.51"/><path d="M1229,-2L1164,144L1350,145Z" fill="#a9a9a9" stroke="#a9a9a9" stroke-width="1.51"/><path d="M1163,1015L1184,1117L1353,1088Z" fill="#505050" stroke="#505050" stroke-width="1.51"/><path d="M1304,-100L1229,-2L1357,-43Z" fill="#aeaeae" stroke="#aeaeae" stroke-width="1.51"/><path d="M1208,490L1255,601L1339,485Z" fill="#858585" stroke="#858585" stroke-width="1.51"/><path d="M1247,859L1163,1015L1349,945Z" fill="#5f5f5f" stroke="#5f5f5f" stroke-width="1.51"/><path d="M1164,144L1332,189L1350,145Z" fill="#a3a3a3" stroke="#a3a3a3" stroke-width="1.51"/><path d="M1164,144L1253,265L1332,189Z" fill="#a3a3a3" stroke="#a3a3a3" stroke-width="1.51"/><path d="M1216,-159L1229,-2L1304,-100Z" fill="#b2b2b2" stroke="#b2b2b2" stroke-width="1.51"/><path d="M1157,732L1247,859L1286,810Z" fill="#6e6e6e" stroke="#6e6e6e" stroke-width="1.51"/><path d="M1075,355L1091,459L1197,300Z" fill="#9e9e9e" stroke="#9e9e9e" stroke-width="1.51"/><path d="M1197,300L1091,459L1208,490Z" fill="#979797" stroke="#979797" stroke-width="1.51"/><path d="M1216,-159L1043,-36L1229,-2Z" fill="#b7b7b7" stroke="#b7b7b7" stroke-width="1.51"/><path d="M1091,834L1163,1015L1247,859Z" fill="#686868" stroke="#686868" stroke-width="1.51"/><path d="M1157,732L1091,834L1247,859Z" fill="#717171" stroke="#717171" stroke-width="1.51"/><path d="M1133,251L1197,300L1253,265Z" fill="#a1a1a1" stroke="#a1a1a1" stroke-width="1.51"/><path d="M1164,144L1133,251L1253,265Z" fill="#a5a5a5" stroke="#a5a5a5" stroke-width="1.51"/><path d="M1208,490L1048,639L1255,601Z" fill="#868686" stroke="#868686" stroke-width="1.51"/><path d="M1048,639L1105,704L1255,601Z" fill="#818181" stroke="#818181" stroke-width="1.51"/><path d="M1105,704L1157,732L1255,601Z" fill="#7c7c7c" stroke="#7c7c7c" stroke-width="1.51"/><path d="M1050,-135L1043,-36L1216,-159Z" fill="#bcbcbc" stroke="#bcbcbc" stroke-width="1.51"/><path d="M1184,1117L1078,1217L1227,1265Z" fill="#474747" stroke="#474747" stroke-width="1.51"/><path d="M1091,834L1048,969L1163,1015Z" fill="#686868" stroke="#686868" stroke-width="1.51"/><path d="M1091,459L1048,639L1208,490Z" fill="#8d8d8d" stroke="#8d8d8d" stroke-width="1.51"/><path d="M1057,124L1164,144L1229,-2Z" fill="#afafaf" stroke="#afafaf" stroke-width="1.51"/><path d="M1043,-36L1057,124L1229,-2Z" fill="#b6b6b6" stroke="#b6b6b6" stroke-width="1.51"/><path d="M1133,251L1075,355L1197,300Z" fill="#a2a2a2" stroke="#a2a2a2" stroke-width="1.51"/><path d="M1163,1015L1033,1118L1184,1117Z" fill="#535353" stroke="#535353" stroke-width="1.51"/><path d="M1033,1118L1078,1217L1184,1117Z" fill="#4e4e4e" stroke="#4e4e4e" stroke-width="1.51"/><path d="M209,-151L469,-130L686,-182Z" fill="#e6e6e6" stroke="#e6e6e6" stroke-width="1.51"/><path d="M1105,704L1091,834L1157,732Z" fill="#787878" stroke="#787878" stroke-width="1.51"/><path d="M1048,969L1033,1118L1163,1015Z" fill="#5c5c5c" stroke="#5c5c5c" stroke-width="1.51"/><path d="M1057,124L1133,251L1164,144Z" fill="#adadad" stroke="#adadad" stroke-width="1.51"/><path d="M1002,1186L857,1228L1078,1217Z" fill="#505050" stroke="#505050" stroke-width="1.51"/><path d="M999,891L1048,969L1091,834Z" fill="#707070" stroke="#707070" stroke-width="1.51"/><path d="M987,183L1075,355L1133,251Z" fill="#a9a9a9" stroke="#a9a9a9" stroke-width="1.51"/><path d="M1057,124L987,183L1133,251Z" fill="#afafaf" stroke="#afafaf" stroke-width="1.51"/><path d="M1043,-36L969,-14L1057,124Z" fill="#bbbbbb" stroke="#bbbbbb" stroke-width="1.51"/><path d="M987,183L964,336L1075,355Z" fill="#ababab" stroke="#ababab" stroke-width="1.51"/><path d="M1033,1118L1002,1186L1078,1217Z" fill="#505050" stroke="#505050" stroke-width="1.51"/><path d="M933,474L1048,639L1091,459Z" fill="#939393" stroke="#939393" stroke-width="1.51"/><path d="M911,718L1091,834L1105,704Z" fill="#7e7e7e" stroke="#7e7e7e" stroke-width="1.51"/><path d="M972,652L911,718L1105,704Z" fill="#868686" stroke="#868686" stroke-width="1.51"/><path d="M1048,639L972,652L1105,704Z" fill="#858585" stroke="#858585" stroke-width="1.51"/><path d="M308,1244L-150,1232L417,1278Z" fill="#707070" stroke="#707070" stroke-width="1.51"/><path d="M933,474L972,652L1048,639Z" fill="#909090" stroke="#909090" stroke-width="1.51"/><path d="M969,-14L963,114L1057,124Z" fill="#bababa" stroke="#bababa" stroke-width="1.51"/><path d="M964,336L933,474L1075,355Z" fill="#a3a3a3" stroke="#a3a3a3" stroke-width="1.51"/><path d="M1075,355L933,474L1091,459Z" fill="#9d9d9d" stroke="#9d9d9d" stroke-width="1.51"/><path d="M911,718L999,891L1091,834Z" fill="#7a7a7a" stroke="#7a7a7a" stroke-width="1.51"/><path d="M923,1107L1033,1118L1048,969Z" fill="#5d5d5d" stroke="#5d5d5d" stroke-width="1.51"/><path d="M990,-144L969,-14L1043,-36Z" fill="#c1c1c1" stroke="#c1c1c1" stroke-width="1.51"/><path d="M923,948L923,1107L1048,969Z" fill="#666666" stroke="#666666" stroke-width="1.51"/><path d="M990,-144L1043,-36L1050,-135Z" fill="#c1c1c1" stroke="#c1c1c1" stroke-width="1.51"/><path d="M963,114L987,183L1057,124Z" fill="#b6b6b6" stroke="#b6b6b6" stroke-width="1.51"/><path d="M933,474L872,549L972,652Z" fill="#969696" stroke="#969696" stroke-width="1.51"/><path d="M999,891L923,948L1048,969Z" fill="#6f6f6f" stroke="#6f6f6f" stroke-width="1.51"/><path d="M547,1238L417,1278L719,1249Z" fill="#626262" stroke="#626262" stroke-width="1.51"/><path d="M923,1107L1002,1186L1033,1118Z" fill="#555555" stroke="#555555" stroke-width="1.51"/><path d="M859,399L933,474L964,336Z" fill="#a6a6a6" stroke="#a6a6a6" stroke-width="1.51"/><path d="M840,189L964,336L987,183Z" fill="#b4b4b4" stroke="#b4b4b4" stroke-width="1.51"/><path d="M882,-41L969,-14L990,-144Z" fill="#c5c5c5" stroke="#c5c5c5" stroke-width="1.51"/><path d="M782,823L923,948L999,891Z" fill="#7a7a7a" stroke="#7a7a7a" stroke-width="1.51"/><path d="M911,718L782,823L999,891Z" fill="#808080" stroke="#808080" stroke-width="1.51"/><path d="M923,1107L857,1228L1002,1186Z" fill="#565656" stroke="#565656" stroke-width="1.51"/><path d="M90,1210L-150,1232L308,1244Z" fill="#767676" stroke="#767676" stroke-width="1.51"/><path d="M882,-41L963,114L969,-14Z" fill="#c1c1c1" stroke="#c1c1c1" stroke-width="1.51"/><path d="M807,-163L882,-41L990,-144Z" fill="#cacaca" stroke="#cacaca" stroke-width="1.51"/><path d="M963,114L840,189L987,183Z" fill="#b9b9b9" stroke="#b9b9b9" stroke-width="1.51"/><path d="M923,948L835,960L923,1107Z" fill="#6b6b6b" stroke="#6b6b6b" stroke-width="1.51"/><path d="M882,-41L808,136L963,114Z" fill="#c2c2c2" stroke="#c2c2c2" stroke-width="1.51"/><path d="M840,189L859,399L964,336Z" fill="#b1b1b1" stroke="#b1b1b1" stroke-width="1.51"/><path d="M872,549L911,718L972,652Z" fill="#8f8f8f" stroke="#8f8f8f" stroke-width="1.51"/><path d="M782,823L835,960L923,948Z" fill="#7b7b7b" stroke="#7b7b7b" stroke-width="1.51"/><path d="M835,960L810,1080L923,1107Z" fill="#676767" stroke="#676767" stroke-width="1.51"/><path d="M808,136L840,189L963,114Z" fill="#bebebe" stroke="#bebebe" stroke-width="1.51"/><path d="M840,189L740,275L859,399Z" fill="#b8b8b8" stroke="#b8b8b8" stroke-width="1.51"/><path d="M787,729L782,823L911,718Z" fill="#8a8a8a" stroke="#8a8a8a" stroke-width="1.51"/><path d="M872,549L787,729L911,718Z" fill="#909090" stroke="#909090" stroke-width="1.51"/><path d="M810,1080L857,1228L923,1107Z" fill="#5d5d5d" stroke="#5d5d5d" stroke-width="1.51"/><path d="M801,428L872,549L933,474Z" fill="#a2a2a2" stroke="#a2a2a2" stroke-width="1.51"/><path d="M859,399L801,428L933,474Z" fill="#a7a7a7" stroke="#a7a7a7" stroke-width="1.51"/><path d="M747,-33L808,136L882,-41Z" fill="#c9c9c9" stroke="#c9c9c9" stroke-width="1.51"/><path d="M747,-33L732,113L808,136Z" fill="#cacaca" stroke="#cacaca" stroke-width="1.51"/><path d="M695,638L787,729L872,549Z" fill="#989898" stroke="#989898" stroke-width="1.51"/><path d="M807,-163L747,-33L882,-41Z" fill="#cecece" stroke="#cecece" stroke-width="1.51"/><path d="M758,1013L810,1080L835,960Z" fill="#6f6f6f" stroke="#6f6f6f" stroke-width="1.51"/><path d="M810,1080L719,1249L857,1228Z" fill="#5c5c5c" stroke="#5c5c5c" stroke-width="1.51"/><path d="M740,275L801,428L859,399Z" fill="#b2b2b2" stroke="#b2b2b2" stroke-width="1.51"/><path d="M801,428L695,638L872,549Z" fill="#a1a1a1" stroke="#a1a1a1" stroke-width="1.51"/><path d="M698,432L695,638L801,428Z" fill="#a9a9a9" stroke="#a9a9a9" stroke-width="1.51"/><path d="M782,823L723,865L835,960Z" fill="#818181" stroke="#818181" stroke-width="1.51"/><path d="M696,1092L719,1249L810,1080Z" fill="#646464" stroke="#646464" stroke-width="1.51"/><path d="M808,136L740,275L840,189Z" fill="#bfbfbf" stroke="#bfbfbf" stroke-width="1.51"/><path d="M723,865L758,1013L835,960Z" fill="#7b7b7b" stroke="#7b7b7b" stroke-width="1.51"/><path d="M638,462L695,638L698,432Z" fill="#ababab" stroke="#ababab" stroke-width="1.51"/><path d="M670,402L698,432L740,275Z" fill="#b8b8b8" stroke="#b8b8b8" stroke-width="1.51"/><path d="M740,275L698,432L801,428Z" fill="#b5b5b5" stroke="#b5b5b5" stroke-width="1.51"/><path d="M686,-182L747,-33L807,-163Z" fill="#d4d4d4" stroke="#d4d4d4" stroke-width="1.51"/><path d="M732,113L740,275L808,136Z" fill="#c4c4c4" stroke="#c4c4c4" stroke-width="1.51"/><path d="M758,1013L696,1092L810,1080Z" fill="#6c6c6c" stroke="#6c6c6c" stroke-width="1.51"/><path d="M209,-151L296,-126L469,-130Z" fill="#eaeaea" stroke="#eaeaea" stroke-width="1.51"/><path d="M692,779L782,823L787,729Z" fill="#8d8d8d" stroke="#8d8d8d" stroke-width="1.51"/><path d="M695,638L692,779L787,729Z" fill="#949494" stroke="#949494" stroke-width="1.51"/><path d="M620,3L732,113L747,-33Z" fill="#d1d1d1" stroke="#d1d1d1" stroke-width="1.51"/><path d="M692,779L723,865L782,823Z" fill="#8a8a8a" stroke="#8a8a8a" stroke-width="1.51"/><path d="M611,99L572,213L732,113Z" fill="#cdcdcd" stroke="#cdcdcd" stroke-width="1.51"/><path d="M732,113L572,213L740,275Z" fill="#c7c7c7" stroke="#c7c7c7" stroke-width="1.51"/><path d="M686,-182L601,-106L747,-33Z" fill="#d9d9d9" stroke="#d9d9d9" stroke-width="1.51"/><path d="M723,865L586,950L758,1013Z" fill="#808080" stroke="#808080" stroke-width="1.51"/><path d="M586,950L696,1092L758,1013Z" fill="#777777" stroke="#777777" stroke-width="1.51"/><path d="M613,726L692,779L695,638Z" fill="#989898" stroke="#989898" stroke-width="1.51"/><path d="M620,3L611,99L732,113Z" fill="#d1d1d1" stroke="#d1d1d1" stroke-width="1.51"/><path d="M598,311L670,402L740,275Z" fill="#bebebe" stroke="#bebebe" stroke-width="1.51"/><path d="M601,-106L620,3L747,-33Z" fill="#d8d8d8" stroke="#d8d8d8" stroke-width="1.51"/><path d="M696,1092L547,1238L719,1249Z" fill="#646464" stroke="#646464" stroke-width="1.51"/><path d="M572,213L598,311L740,275Z" fill="#c4c4c4" stroke="#c4c4c4" stroke-width="1.51"/><path d="M586,950L560,1051L696,1092Z" fill="#787878" stroke="#787878" stroke-width="1.51"/><path d="M638,462L571,655L695,638Z" fill="#a6a6a6" stroke="#a6a6a6" stroke-width="1.51"/><path d="M692,779L572,837L723,865Z" fill="#8e8e8e" stroke="#8e8e8e" stroke-width="1.51"/><path d="M572,837L586,950L723,865Z" fill="#8a8a8a" stroke="#8a8a8a" stroke-width="1.51"/><path d="M469,-130L601,-106L686,-182Z" fill="#dedede" stroke="#dedede" stroke-width="1.51"/><path d="M571,655L613,726L695,638Z" fill="#9e9e9e" stroke="#9e9e9e" stroke-width="1.51"/><path d="M560,1051L547,1238L696,1092Z" fill="#6c6c6c" stroke="#6c6c6c" stroke-width="1.51"/><path d="M670,402L638,462L698,432Z" fill="#b4b4b4" stroke="#b4b4b4" stroke-width="1.51"/><path d="M613,726L572,837L692,779Z" fill="#939393" stroke="#939393" stroke-width="1.51"/><path d="M445,519L571,655L638,462Z" fill="#aeaeae" stroke="#aeaeae" stroke-width="1.51"/><path d="M598,311L638,462L670,402Z" fill="#bababa" stroke="#bababa" stroke-width="1.51"/><path d="M445,519L440,586L571,655Z" fill="#adadad" stroke="#adadad" stroke-width="1.51"/><path d="M598,311L454,392L638,462Z" fill="#bdbdbd" stroke="#bdbdbd" stroke-width="1.51"/><path d="M454,392L445,519L638,462Z" fill="#b9b9b9" stroke="#b9b9b9" stroke-width="1.51"/><path d="M469,-130L460,29L601,-106Z" fill="#dfdfdf" stroke="#dfdfdf" stroke-width="1.51"/><path d="M460,29L611,99L620,3Z" fill="#d7d7d7" stroke="#d7d7d7" stroke-width="1.51"/><path d="M601,-106L460,29L620,3Z" fill="#dbdbdb" stroke="#dbdbdb" stroke-width="1.51"/><path d="M433,1083L547,1238L560,1051Z" fill="#717171" stroke="#717171" stroke-width="1.51"/><path d="M453,104L572,213L611,99Z" fill="#d2d2d2" stroke="#d2d2d2" stroke-width="1.51"/><path d="M460,29L453,104L611,99Z" fill="#d8d8d8" stroke="#d8d8d8" stroke-width="1.51"/><path d="M407,748L572,837L613,726Z" fill="#999999" stroke="#999999" stroke-width="1.51"/><path d="M571,655L407,748L613,726Z" fill="#9e9e9e" stroke="#9e9e9e" stroke-width="1.51"/><path d="M572,837L459,863L586,950Z" fill="#8e8e8e" stroke="#8e8e8e" stroke-width="1.51"/><path d="M465,985L560,1051L586,950Z" fill="#808080" stroke="#808080" stroke-width="1.51"/><path d="M572,213L454,392L598,311Z" fill="#c6c6c6" stroke="#c6c6c6" stroke-width="1.51"/><path d="M430,176L454,392L572,213Z" fill="#cccccc" stroke="#cccccc" stroke-width="1.51"/><path d="M453,104L430,176L572,213Z" fill="#d3d3d3" stroke="#d3d3d3" stroke-width="1.51"/><path d="M407,748L459,863L572,837Z" fill="#979797" stroke="#979797" stroke-width="1.51"/><path d="M459,863L465,985L586,950Z" fill="#8a8a8a" stroke="#8a8a8a" stroke-width="1.51"/><path d="M440,586L407,748L571,655Z" fill="#a6a6a6" stroke="#a6a6a6" stroke-width="1.51"/><path d="M433,1083L417,1278L547,1238Z" fill="#6b6b6b" stroke="#6b6b6b" stroke-width="1.51"/><path d="M465,985L433,1083L560,1051Z" fill="#7c7c7c" stroke="#7c7c7c" stroke-width="1.51"/><path d="M244,1220L90,1210L308,1244Z" fill="#727272" stroke="#727272" stroke-width="1.51"/><path d="M308,1244L417,1278L433,1083Z" fill="#6e6e6e" stroke="#6e6e6e" stroke-width="1.51"/><path d="M287,1142L308,1244L433,1083Z" fill="#747474" stroke="#747474" stroke-width="1.51"/><path d="M317,614L407,748L440,586Z" fill="#ababab" stroke="#ababab" stroke-width="1.51"/><path d="M430,176L317,267L454,392Z" fill="#cfcfcf" stroke="#cfcfcf" stroke-width="1.51"/><path d="M317,267L386,406L454,392Z" fill="#c9c9c9" stroke="#c9c9c9" stroke-width="1.51"/><path d="M374,477L445,519L454,392Z" fill="#bcbcbc" stroke="#bcbcbc" stroke-width="1.51"/><path d="M386,406L374,477L454,392Z" fill="#c1c1c1" stroke="#c1c1c1" stroke-width="1.51"/><path d="M407,748L362,829L459,863Z" fill="#9b9b9b" stroke="#9b9b9b" stroke-width="1.51"/><path d="M459,863L372,949L465,985Z" fill="#8e8e8e" stroke="#8e8e8e" stroke-width="1.51"/><path d="M372,949L433,1083L465,985Z" fill="#848484" stroke="#848484" stroke-width="1.51"/><path d="M307,-50L460,29L469,-130Z" fill="#e3e3e3" stroke="#e3e3e3" stroke-width="1.51"/><path d="M296,-126L307,-50L469,-130Z" fill="#e8e8e8" stroke="#e8e8e8" stroke-width="1.51"/><path d="M-197,-101L-19,-118L111,-165Z" fill="#f6f6f6" stroke="#f6f6f6" stroke-width="1.51"/><path d="M362,829L372,949L459,863Z" fill="#959595" stroke="#959595" stroke-width="1.51"/><path d="M294,140L453,104L460,29Z" fill="#dcdcdc" stroke="#dcdcdc" stroke-width="1.51"/><path d="M307,-50L294,140L460,29Z" fill="#e1e1e1" stroke="#e1e1e1" stroke-width="1.51"/><path d="M294,140L430,176L453,104Z" fill="#d9d9d9" stroke="#d9d9d9" stroke-width="1.51"/><path d="M317,614L288,702L407,748Z" fill="#a9a9a9" stroke="#a9a9a9" stroke-width="1.51"/><path d="M374,477L317,614L440,586Z" fill="#b4b4b4" stroke="#b4b4b4" stroke-width="1.51"/><path d="M374,477L440,586L445,519Z" fill="#b6b6b6" stroke="#b6b6b6" stroke-width="1.51"/><path d="M372,949L239,1056L433,1083Z" fill="#838383" stroke="#838383" stroke-width="1.51"/><path d="M239,1056L287,1142L433,1083Z" fill="#7c7c7c" stroke="#7c7c7c" stroke-width="1.51"/><path d="M294,140L317,267L430,176Z" fill="#d7d7d7" stroke="#d7d7d7" stroke-width="1.51"/><path d="M288,702L362,829L407,748Z" fill="#a2a2a2" stroke="#a2a2a2" stroke-width="1.51"/><path d="M251,-43L294,140L307,-50Z" fill="#e5e5e5" stroke="#e5e5e5" stroke-width="1.51"/><path d="M362,829L215,821L372,949Z" fill="#999999" stroke="#999999" stroke-width="1.51"/><path d="M317,267L159,347L386,406Z" fill="#cfcfcf" stroke="#cfcfcf" stroke-width="1.51"/><path d="M159,347L174,447L386,406Z" fill="#cbcbcb" stroke="#cbcbcb" stroke-width="1.51"/><path d="M174,447L374,477L386,406Z" fill="#c3c3c3" stroke="#c3c3c3" stroke-width="1.51"/><path d="M174,447L212,614L317,614Z" fill="#bababa" stroke="#bababa" stroke-width="1.51"/><path d="M288,702L215,821L362,829Z" fill="#a2a2a2" stroke="#a2a2a2" stroke-width="1.51"/><path d="M213,1023L239,1056L372,949Z" fill="#898989" stroke="#898989" stroke-width="1.51"/><path d="M215,821L213,1023L372,949Z" fill="#949494" stroke="#949494" stroke-width="1.51"/><path d="M174,447L317,614L374,477Z" fill="#bdbdbd" stroke="#bdbdbd" stroke-width="1.51"/><path d="M294,140L233,210L317,267Z" fill="#d9d9d9" stroke="#d9d9d9" stroke-width="1.51"/><path d="M251,-43L137,86L258,144Z" fill="#e5e5e5" stroke="#e5e5e5" stroke-width="1.51"/><path d="M258,144L233,210L294,140Z" fill="#dddddd" stroke="#dddddd" stroke-width="1.51"/><path d="M251,-43L258,144L294,140Z" fill="#e2e2e2" stroke="#e2e2e2" stroke-width="1.51"/><path d="M296,-126L251,-43L307,-50Z" fill="#e9e9e9" stroke="#e9e9e9" stroke-width="1.51"/><path d="M287,1142L244,1220L308,1244Z" fill="#727272" stroke="#727272" stroke-width="1.51"/><path d="M233,210L159,347L317,267Z" fill="#d6d6d6" stroke="#d6d6d6" stroke-width="1.51"/><path d="M212,614L288,702L317,614Z" fill="#b0b0b0" stroke="#b0b0b0" stroke-width="1.51"/><path d="M176,712L215,821L288,702Z" fill="#a8a8a8" stroke="#a8a8a8" stroke-width="1.51"/><path d="M114,876L213,1023L215,821Z" fill="#9a9a9a" stroke="#9a9a9a" stroke-width="1.51"/><path d="M209,-151L251,-43L296,-126Z" fill="#ececec" stroke="#ececec" stroke-width="1.51"/><path d="M212,614L176,712L288,702Z" fill="#afafaf" stroke="#afafaf" stroke-width="1.51"/><path d="M239,1056L244,1220L287,1142Z" fill="#797979" stroke="#797979" stroke-width="1.51"/><path d="M239,1056L90,1210L244,1220Z" fill="#797979" stroke="#797979" stroke-width="1.51"/><path d="M94,-74L137,86L251,-43Z" fill="#ebebeb" stroke="#ebebeb" stroke-width="1.51"/><path d="M137,86L233,210L258,144Z" fill="#e0e0e0" stroke="#e0e0e0" stroke-width="1.51"/><path d="M92,245L159,347L233,210Z" fill="#d9d9d9" stroke="#d9d9d9" stroke-width="1.51"/><path d="M213,1023L90,1210L239,1056Z" fill="#808080" stroke="#808080" stroke-width="1.51"/><path d="M209,-151L94,-74L251,-43Z" fill="#eeeeee" stroke="#eeeeee" stroke-width="1.51"/><path d="M174,447L63,551L212,614Z" fill="#c0c0c0" stroke="#c0c0c0" stroke-width="1.51"/><path d="M32,1149L90,1210L213,1023Z" fill="#7f7f7f" stroke="#7f7f7f" stroke-width="1.51"/><path d="M137,86L92,245L233,210Z" fill="#e0e0e0" stroke="#e0e0e0" stroke-width="1.51"/><path d="M81,475L63,551L174,447Z" fill="#c6c6c6" stroke="#c6c6c6" stroke-width="1.51"/><path d="M111,-165L94,-74L209,-151Z" fill="#f2f2f2" stroke="#f2f2f2" stroke-width="1.51"/><path d="M62,696L176,712L212,614Z" fill="#b2b2b2" stroke="#b2b2b2" stroke-width="1.51"/><path d="M41,971L32,1149L213,1023Z" fill="#8a8a8a" stroke="#8a8a8a" stroke-width="1.51"/><path d="M114,876L41,971L213,1023Z" fill="#969696" stroke="#969696" stroke-width="1.51"/><path d="M176,712L114,876L215,821Z" fill="#a4a4a4" stroke="#a4a4a4" stroke-width="1.51"/><path d="M63,551L62,696L212,614Z" fill="#b9b9b9" stroke="#b9b9b9" stroke-width="1.51"/><path d="M159,347L118,370L174,447Z" fill="#cfcfcf" stroke="#cfcfcf" stroke-width="1.51"/><path d="M118,370L81,475L174,447Z" fill="#cccccc" stroke="#cccccc" stroke-width="1.51"/><path d="M62,696L114,876L176,712Z" fill="#aaaaaa" stroke="#aaaaaa" stroke-width="1.51"/><path d="M62,696L-8,750L114,876Z" fill="#acacac" stroke="#acacac" stroke-width="1.51"/><path d="M94,-74L-39,17L137,86Z" fill="#eeeeee" stroke="#eeeeee" stroke-width="1.51"/><path d="M92,245L118,370L159,347Z" fill="#d7d7d7" stroke="#d7d7d7" stroke-width="1.51"/><path d="M-90,1182L-150,1232L90,1210Z" fill="#7b7b7b" stroke="#7b7b7b" stroke-width="1.51"/><path d="M-93,154L92,245L137,86Z" fill="#e5e5e5" stroke="#e5e5e5" stroke-width="1.51"/><path d="M-39,17L-93,154L137,86Z" fill="#ebebeb" stroke="#ebebeb" stroke-width="1.51"/><path d="M-20,614L62,696L63,551Z" fill="#bbbbbb" stroke="#bbbbbb" stroke-width="1.51"/><path d="M-19,-118L94,-74L111,-165Z" fill="#f4f4f4" stroke="#f4f4f4" stroke-width="1.51"/><path d="M-8,750L-34,883L114,876Z" fill="#a6a6a6" stroke="#a6a6a6" stroke-width="1.51"/><path d="M11,394L81,475L118,370Z" fill="#d0d0d0" stroke="#d0d0d0" stroke-width="1.51"/><path d="M92,245L-17,280L118,370Z" fill="#dadada" stroke="#dadada" stroke-width="1.51"/><path d="M-17,280L11,394L118,370Z" fill="#d8d8d8" stroke="#d8d8d8" stroke-width="1.51"/><path d="M-93,154L-17,280L92,245Z" fill="#e2e2e2" stroke="#e2e2e2" stroke-width="1.51"/><path d="M-34,883L41,971L114,876Z" fill="#9e9e9e" stroke="#9e9e9e" stroke-width="1.51"/><path d="M-87,1061L32,1149L41,971Z" fill="#8b8b8b" stroke="#8b8b8b" stroke-width="1.51"/><path d="M32,1149L-90,1182L90,1210Z" fill="#7d7d7d" stroke="#7d7d7d" stroke-width="1.51"/><path d="M-19,-118L-39,17L94,-74Z" fill="#f3f3f3" stroke="#f3f3f3" stroke-width="1.51"/><path d="M-48,975L-87,1061L41,971Z" fill="#939393" stroke="#939393" stroke-width="1.51"/><path d="M-23,507L63,551L81,475Z" fill="#c6c6c6" stroke="#c6c6c6" stroke-width="1.51"/><path d="M11,394L-23,507L81,475Z" fill="#cccccc" stroke="#cccccc" stroke-width="1.51"/><path d="M-20,614L-8,750L62,696Z" fill="#b5b5b5" stroke="#b5b5b5" stroke-width="1.51"/><path d="M-23,507L-20,614L63,551Z" fill="#c2c2c2" stroke="#c2c2c2" stroke-width="1.51"/><path d="M-34,883L-48,975L41,971Z" fill="#9b9b9b" stroke="#9b9b9b" stroke-width="1.51"/><path d="M-87,1061L-90,1182L32,1149Z" fill="#838383" stroke="#838383" stroke-width="1.51"/><path d="M-215,465L-23,507L11,394Z" fill="#cecece" stroke="#cecece" stroke-width="1.51"/><path d="M-207,319L-215,465L11,394Z" fill="#d7d7d7" stroke="#d7d7d7" stroke-width="1.51"/><path d="M-17,280L-207,319L11,394Z" fill="#dbdbdb" stroke="#dbdbdb" stroke-width="1.51"/><path d="M-125,17L-93,154L-39,17Z" fill="#eeeeee" stroke="#eeeeee" stroke-width="1.51"/><path d="M-23,507L-175,605L-20,614Z" fill="#c2c2c2" stroke="#c2c2c2" stroke-width="1.51"/><path d="M-125,17L-39,17L-19,-118Z" fill="#f3f3f3" stroke="#f3f3f3" stroke-width="1.51"/><path d="M-208,761L-34,883L-8,750Z" fill="#acacac" stroke="#acacac" stroke-width="1.51"/><path d="M-20,614L-175,605L-8,750Z" fill="#bababa" stroke="#bababa" stroke-width="1.51"/><path d="M-175,605L-208,761L-8,750Z" fill="#b6b6b6" stroke="#b6b6b6" stroke-width="1.51"/><path d="M-197,-101L-125,17L-19,-118Z" fill="#f6f6f6" stroke="#f6f6f6" stroke-width="1.51"/><path d="M-93,154L-155,177L-17,280Z" fill="#e5e5e5" stroke="#e5e5e5" stroke-width="1.51"/><path d="M-155,177L-207,319L-17,280Z" fill="#e2e2e2" stroke="#e2e2e2" stroke-width="1.51"/><path d="M-125,17L-136,140L-93,154Z" fill="#ececec" stroke="#ececec" stroke-width="1.51"/><path d="M-208,761L-214,897L-34,883Z" fill="#a9a9a9" stroke="#a9a9a9" stroke-width="1.51"/><path d="M-136,957L-48,975L-34,883Z" fill="#9d9d9d" stroke="#9d9d9d" stroke-width="1.51"/><path d="M-215,465L-175,605L-23,507Z" fill="#c8c8c8" stroke="#c8c8c8" stroke-width="1.51"/><path d="M-214,897L-136,957L-34,883Z" fill="#a2a2a2" stroke="#a2a2a2" stroke-width="1.51"/><path d="M-136,957L-134,1055L-87,1061Z" fill="#929292" stroke="#929292" stroke-width="1.51"/><path d="M-136,957L-87,1061L-48,975Z" fill="#959595" stroke="#959595" stroke-width="1.51"/><path d="M-134,1055L-150,1232L-90,1182Z" fill="#828282" stroke="#828282" stroke-width="1.51"/><path d="M-134,1055L-90,1182L-87,1061Z" fill="#888888" stroke="#888888" stroke-width="1.51"/><path d="M-136,140L-155,177L-93,154Z" fill="#eaeaea" stroke="#eaeaea" stroke-width="1.51"/><path d="M-197,-101L-155,177L-136,140Z" fill="#f0f0f0" stroke="#f0f0f0" stroke-width="1.51"/><path d="M-136,957L-214,897L-134,1055Z" fill="#9b9b9b" stroke="#9b9b9b" stroke-width="1.51"/><path d="M-197,-101L-136,140L-125,17Z" fill="#f3f3f3" stroke="#f3f3f3" stroke-width="1.51"/><path d="M-214,897L-150,1232L-134,1055Z" fill="#8e8e8e" stroke="#8e8e8e" stroke-width="1.51"/><path d="M-197,-101L-207,319L-155,177Z" fill="#ededed" stroke="#ededed" stroke-width="1.51"/><path d="M-215,465L-208,761L-175,605Z" fill="#c2c2c2" stroke="#c2c2c2" stroke-width="1.51"/><path d="M-215,465L-207,319L-197,-101Z" fill="#e7e7e7" stroke="#e7e7e7" stroke-width="1.51"/><path d="M-215,465L-214,897L-208,761Z" fill="#b8b8b8" stroke="#b8b8b8" stroke-width="1.51"/></svg>